<svg width="26" height="26" viewBox="0 0 26 26" fill="none" xmlns="http://www.w3.org/2000/svg">
<path d="M17.0191 8.98049C16.9184 8.87895 16.7985 8.79836 16.6665 8.74336C16.5345 8.68836 16.3929 8.66004 16.2499 8.66004C16.1069 8.66004 15.9653 8.68836 15.8333 8.74336C15.7013 8.79836 15.5814 8.87895 15.4807 8.98049L12.9999 11.4722L10.5191 8.98049C10.3151 8.7765 10.0384 8.66189 9.7499 8.66189C9.46141 8.66189 9.18473 8.7765 8.98074 8.98049C8.77674 9.18449 8.66214 9.46116 8.66214 9.74966C8.66214 10.0382 8.77674 10.3148 8.98074 10.5188L11.4724 12.9997L8.98074 15.4805C8.8792 15.5812 8.7986 15.701 8.7436 15.833C8.6886 15.965 8.66029 16.1066 8.66029 16.2497C8.66029 16.3927 8.6886 16.5343 8.7436 16.6663C8.7986 16.7983 8.8792 16.9181 8.98074 17.0188C9.08145 17.1204 9.20126 17.201 9.33328 17.256C9.46529 17.311 9.60689 17.3393 9.7499 17.3393C9.89291 17.3393 10.0345 17.311 10.1665 17.256C10.2985 17.201 10.4184 17.1204 10.5191 17.0188L12.9999 14.5272L15.4807 17.0188C15.5814 17.1204 15.7013 17.201 15.8333 17.256C15.9653 17.311 16.1069 17.3393 16.2499 17.3393C16.3929 17.3393 16.5345 17.311 16.6665 17.256C16.7985 17.201 16.9184 17.1204 17.0191 17.0188C17.1206 16.9181 17.2012 16.7983 17.2562 16.6663C17.3112 16.5343 17.3395 16.3927 17.3395 16.2497C17.3395 16.1066 17.3112 15.965 17.2562 15.833C17.2012 15.701 17.1206 15.5812 17.0191 15.4805L14.5274 12.9997L17.0191 10.5188C17.1206 10.4181 17.2012 10.2983 17.2562 10.1663C17.3112 10.0343 17.3395 9.89267 17.3395 9.74966C17.3395 9.60665 17.3112 9.46505 17.2562 9.33303C17.2012 9.20102 17.1206 9.0812 17.0191 8.98049V8.98049ZM20.6591 5.34049C19.6597 4.3058 18.4643 3.48049 17.1426 2.91273C15.8209 2.34496 14.3994 2.04611 12.9609 2.03361C11.5225 2.02111 10.0959 2.29521 8.76457 2.83992C7.43319 3.38463 6.22363 4.18904 5.20646 5.20621C4.18929 6.22338 3.38488 7.43295 2.84017 8.76432C2.29546 10.0957 2.02136 11.5222 2.03386 12.9607C2.04636 14.3991 2.34521 15.8207 2.91297 17.1424C3.48074 18.4641 4.30604 19.6595 5.34074 20.6588C6.34008 21.6935 7.53548 22.5188 8.85719 23.0866C10.1789 23.6544 11.6004 23.9532 13.0389 23.9657C14.4773 23.9782 15.9039 23.7041 17.2352 23.1594C18.5666 22.6147 19.7762 21.8103 20.7933 20.7931C21.8105 19.7759 22.6149 18.5664 23.1596 17.235C23.7043 15.9036 23.9784 14.4771 23.9659 13.0386C23.9534 11.6002 23.6546 10.1787 23.0868 8.85694C22.5191 7.53523 21.6938 6.33983 20.6591 5.34049V5.34049ZM19.1316 19.1313C17.7146 20.5499 15.8497 21.4332 13.8544 21.6309C11.8592 21.8286 9.85716 21.3284 8.18938 20.2155C6.52161 19.1026 5.29129 17.4459 4.70804 15.5276C4.12479 13.6093 4.22469 11.5481 4.99073 9.69526C5.75676 7.84237 7.14153 6.3124 8.90912 5.36602C10.6767 4.41963 12.7177 4.11538 14.6845 4.5051C16.6512 4.89483 18.422 5.95441 19.6952 7.50332C20.9683 9.05224 21.665 10.9947 21.6666 12.9997C21.6704 14.1386 21.4484 15.2669 21.0132 16.3194C20.5781 17.3719 19.9385 18.3277 19.1316 19.1313V19.1313Z" fill="black"/>
</svg>
