<svg width="48" height="48" viewBox="0 0 48 48" fill="none" xmlns="http://www.w3.org/2000/svg">
<path d="M28.7704 25.3157C29.9034 24.4292 30.7304 23.2135 31.1364 21.8378C31.5423 20.462 31.507 18.9947 31.0353 17.6398C30.5636 16.285 29.6791 15.1101 28.5047 14.2785C27.3303 13.4469 25.9245 13 24.4829 13C23.0412 13 21.6354 13.4469 20.461 14.2785C19.2866 15.1101 18.4021 16.285 17.9304 17.6398C17.4587 18.9947 17.4234 20.462 17.8293 21.8378C18.2353 23.2135 19.0623 24.4292 20.1953 25.3157C18.2538 26.0893 16.5599 27.3723 15.2939 29.028C14.028 30.6837 13.2376 32.65 13.007 34.7173C12.9903 34.8682 13.0036 35.021 13.0463 35.1668C13.0889 35.3126 13.1601 35.4486 13.2556 35.567C13.4485 35.8063 13.729 35.9595 14.0355 35.9931C14.342 36.0266 14.6494 35.9377 14.8899 35.7458C15.1305 35.554 15.2846 35.275 15.3183 34.9702C15.5721 32.7234 16.6493 30.6484 18.3441 29.1416C20.039 27.6348 22.2326 26.8018 24.506 26.8018C26.7793 26.8018 28.973 27.6348 30.6678 29.1416C32.3626 30.6484 33.4398 32.7234 33.6936 34.9702C33.725 35.2526 33.8605 35.5134 34.074 35.7023C34.2874 35.8912 34.5636 35.9948 34.8493 35.9931H34.9764C35.2794 35.9584 35.5563 35.8061 35.7467 35.5692C35.9372 35.3324 36.0259 35.0303 35.9934 34.7288C35.7617 32.6556 34.967 30.6843 33.6946 29.026C32.4222 27.3678 30.72 26.0852 28.7704 25.3157V25.3157ZM24.4829 24.4997C23.5686 24.4997 22.6748 24.2301 21.9146 23.7249C21.1544 23.2197 20.5619 22.5017 20.212 21.6617C19.8621 20.8216 19.7706 19.8972 19.949 19.0054C20.1273 18.1136 20.5676 17.2945 21.2141 16.6515C21.8606 16.0086 22.6843 15.5707 23.581 15.3933C24.4777 15.2159 25.4072 15.307 26.2519 15.6549C27.0966 16.0029 27.8186 16.5922 28.3265 17.3482C28.8345 18.1042 29.1056 18.9931 29.1056 19.9023C29.1056 21.1216 28.6185 22.291 27.7516 23.1532C26.8847 24.0153 25.7089 24.4997 24.4829 24.4997Z" fill="black"/>
<rect x="0.5" y="0.5" width="47" height="47" rx="23.5" stroke="black"/>
</svg>
